# xmcd
#
# Track frame offsets:
#	150
#	14367
#	31653
#	48115
#	63482
#	78025
#	94545
#	112727
#	128179
#	141723
#	155514
#	173010
#	190896
#	207186
#
# Disc length: 2899 seconds
#
# Revision: 0
# Processed by: cddbd v1.5.1PL0 Copyright (c) Steve Scherf et al.
# Submitted via: audiograbber 1.83.01
#
DISCID=ac0b510e
DTITLE=Status Quo - Spare Parts [CDOne - Stereo LP)
DYEAR=1969
DGENRE=Rock
TTITLE0=Face Without A Soul
TTITLE1=You're Just What I Was Looking For Today
TTITLE2=Are You Growing Tired of My Love
TTITLE3=Antique Angelique
TTITLE4=So Ends Another Life
TTITLE5=Poor Old Man
TTITLE6=Mr Mind Detector
TTITLE7=The Clown
TTITLE8=Velvet Curtains
TTITLE9=Little Miss Nothing
TTITLE10=When I Awake
TTITLE11=Nothing At All
TTITLE12=Josie (Unissued At The Time)
TTITLE13=Do You Live In Fire (Unissued At The Time)
EXTD=
EXTT0=
EXTT1=
EXTT2=
EXTT3=
EXTT4=
EXTT5=
EXTT6=
EXTT7=
EXTT8=
EXTT9=
EXTT10=
EXTT11=
EXTT12=
EXTT13=
PLAYORDER=
